<?xml version="1.0" encoding="UTF-8" standalone="no"?>
<!-- Created with Inkscape (http://www.inkscape.org/) -->

<svg
   xmlns:dc="http://purl.org/dc/elements/1.1/"
   xmlns:cc="http://creativecommons.org/ns#"
   xmlns:rdf="http://www.w3.org/1999/02/22-rdf-syntax-ns#"
   xmlns:svg="http://www.w3.org/2000/svg"
   xmlns="http://www.w3.org/2000/svg"
   xmlns:sodipodi="http://sodipodi.sourceforge.net/DTD/sodipodi-0.dtd"
   xmlns:inkscape="http://www.inkscape.org/namespaces/inkscape"
   id="svg4945"
   version="1.1"
   inkscape:version="0.91 r13725"
   width="512.10193"
   height="512.10193"
   viewBox="0 0 512.10193 512.10193"
   sodipodi:docname="logo.svg">
  <metadata
     id="metadata4951">
    <rdf:RDF>
      <cc:Work
         rdf:about="">
        <dc:format>image/svg+xml</dc:format>
        <dc:type
           rdf:resource="http://purl.org/dc/dcmitype/StillImage" />
        <dc:title></dc:title>
      </cc:Work>
    </rdf:RDF>
  </metadata>
  <defs
     id="defs4949" />
  <sodipodi:namedview
     pagecolor="#ffffff"
     bordercolor="#666666"
     borderopacity="1"
     objecttolerance="10"
     gridtolerance="10"
     guidetolerance="10"
     inkscape:pageopacity="0"
     inkscape:pageshadow="2"
     inkscape:window-width="961"
     inkscape:window-height="560"
     id="namedview4947"
     showgrid="false"
     inkscape:zoom="0.46084576"
     inkscape:cx="256.05096"
     inkscape:cy="256.05096"
     inkscape:window-x="400"
     inkscape:window-y="71"
     inkscape:window-maximized="0"
     inkscape:current-layer="svg4945" />
  <g
     id="g5495">
    <path
       style="fill:#fdfafa"
       d="M 0,256.05097 0,0 l 256.05097,0 256.05096,0 0,256.05097 0,256.05096 -256.05096,0 -256.05097,0 0,-256.05096 z"
       id="path5511"
       inkscape:connector-curvature="0" />
    <path
       style="fill:#df5f5f"
       d="M 0,256.05097 0,0 l 256.05097,0 256.05096,0 0,256.05097 0,256.05096 -256.05096,0 L 0,512.10193 0,256.05097 Z M 69.435108,414.7676 c 2.749448,-1.04534 9.748836,-9.14143 16.786575,-19.41681 13.438993,-19.62145 22.716497,-26.93022 38.474007,-30.30959 12.71314,-2.72649 24.59246,-8.09146 35.52572,-16.04423 16.80624,-12.22473 20.7514,-13.56598 39.46013,-13.4153 9.4586,0.0763 24.38639,1.56008 33.17287,3.29754 19.63588,3.88284 30.57065,3.95526 44.21566,0.29278 6.37443,-1.71098 19.21869,-2.82981 32.64411,-2.84356 l 22.13456,-0.0227 20.53406,12.45189 c 14.13377,8.57073 25.10217,13.67604 35.19,16.37939 18.66362,5.00147 24.16793,9.32321 37.3318,29.3112 12.22928,18.56895 17.44358,22.90663 25.19675,20.96072 12.07236,-3.02999 33.33816,-33.62013 33.33816,-47.95587 0,-7.93803 -5.05984,-18.09976 -17.59154,-35.3293 -8.00007,-10.99907 -11.569,-18.98186 -21.54786,-48.19681 -14.31093,-41.89802 -21.32639,-55.69726 -34.38267,-67.62996 -11.79881,-10.78345 -37.4126,-28.05045 -54.50341,-36.74234 -10.24563,-5.21062 -15.17328,-6.46882 -28.14274,-7.18581 -20.27255,-1.12071 -30.14713,1.43969 -50.44745,13.08063 -9.06856,5.20024 -18.09722,9.48159 -20.06369,9.51412 -1.96649,0.0325 -13.29631,-4.91173 -25.1774,-10.98726 l -21.60197,-11.04641 -20.43624,0 c -19.98022,0 -20.75461,0.16458 -34.70299,7.37503 -26.9767,13.9453 -55.134924,35.494 -64.625858,49.45636 -3.04204,4.47522 -12.637774,27.05397 -21.323854,50.17499 -9.943265,26.46745 -18.46012,45.9309 -22.993965,52.54777 -17.004136,24.8165 -17.235452,25.26476 -17.235452,33.40093 0,14.7553 16.333591,41.101 29.617836,47.77288 6.818664,3.42461 5.429647,3.28641 11.154851,1.1097 z M 241.71975,314.64521 c -5.25477,-2.43417 -16.43312,-6.82529 -24.84076,-9.75805 -36.05369,-12.57626 -50.96681,-25.68403 -56.30072,-49.48502 -4.34108,-19.37077 5.69546,-39.58034 24.54748,-49.42874 15.8133,-8.26097 24.76616,-7.46141 47.22605,4.21769 10.10536,5.25478 20.84888,9.55414 23.87445,9.55414 3.02556,0 13.69509,-4.29936 23.71007,-9.55414 14.82025,-7.77606 19.99332,-9.55414 27.79647,-9.55414 23.16579,0 40.7984,16.64303 43.27779,40.84892 2.76155,26.96077 -15.17048,50.20095 -46.67673,60.49372 -7.11291,2.32372 -20.03658,7.12829 -28.71927,10.67681 -18.67695,7.63311 -21.36912,7.79108 -33.89483,1.98881 z M 126.97554,159.65845 c 6.8832,-18.85983 12.51491,-34.45222 12.51491,-34.64975 0,-0.19753 -1.58755,-0.7743 -3.5279,-1.28172 -3.81933,-0.99877 -3.09708,-2.81988 -20.59929,51.93944 -12.23551,38.28134 -4.1168,27.08939 11.61228,-16.00797 z m 267.49142,5.40625 c -9.00203,-32.84171 -11.90868,-38.95005 -18.53442,-38.95005 -2.79287,0 -3.39067,0.8401 -2.37956,3.34395 0.74272,1.83918 6.05068,16.24204 11.79547,32.00637 9.97301,27.36708 15.20874,38.6148 17.09623,36.7273 0.47599,-0.47598 -3.114,-15.38338 -7.97772,-33.12757 z M 152.96307,144.86192 c 8.35439,-16.48836 15.1898,-32.13228 15.1898,-34.76426 0,-4.65097 -6.78735,-11.489152 -9.64857,-9.72083 -3.59414,2.22131 -32.48772,78.09847 -32.31199,84.85424 0.16991,6.53236 12.19229,-11.59686 26.77076,-40.36915 z m 227.57349,21.9979 c -3.12168,-9.2729 -10.41113,-28.03816 -16.19876,-41.70058 -8.53765,-20.15422 -11.18323,-24.72571 -14.02272,-24.23092 -4.97582,0.86706 -8.49226,6.15664 -7.14967,10.75489 0.62979,2.15704 7.72777,17.08656 15.77329,33.17671 14.10977,28.21802 25.15414,45.21831 26.58593,40.92297 0.37824,-1.13479 -1.86637,-9.65017 -4.98807,-18.92307 z m -15.76983,1.77076 c -4.46465,-10.42456 -15.00721,-30.05683 -29.68548,-55.28007 -10.94463,-18.807326 -15.60359,-22.375782 -21.84237,-16.729764 -6.7568,6.114804 -4.87542,16.676104 7.30253,40.993564 l 10.98726,21.93984 17.19746,9.00679 c 9.4586,4.95374 17.8118,9.03813 18.56266,9.07643 0.75088,0.0383 -0.38406,-4.01475 -2.52206,-9.00679 z m -201.79664,0.9481 c 12.5833,-5.32192 22.44998,-17.28487 31.75489,-38.50155 8.47548,-19.32543 9.79301,-29.36012 4.47885,-34.111698 -7.0531,-6.306411 -10.3581,-4.931146 -17.24203,7.174698 -20.13262,35.40455 -29.31899,52.67889 -32.84421,61.76127 l -3.94694,10.16891 4.32551,-1.31122 c 2.37902,-0.72117 8.44229,-3.05236 13.47393,-5.18041 z"
       id="path5509"
       inkscape:connector-curvature="0" />
    <path
       style="fill:#e21c1c"
       d="M 0,256.05097 0,0 l 256.05097,0 256.05096,0 0,256.05097 0,256.05096 -256.05096,0 -256.05097,0 0,-256.05096 z m 74.134512,156.63906 c 2.28497,-2.12878 7.066545,-8.42278 10.625722,-13.98665 14.260548,-22.29283 23.581856,-29.48907 43.528806,-33.60507 10.10161,-2.08444 15.83037,-5.01716 41.56826,-21.28007 13.70495,-8.6597 28.79063,-9.54065 63.95375,-3.73465 25.11445,4.14678 25.60609,4.15555 38.64791,0.68889 9.35438,-2.48651 19.95724,-3.51132 36.32828,-3.51132 l 23.11844,0 21.12698,12.83398 c 15.74688,9.56576 24.61643,13.62766 34.82979,15.95064 16.92443,3.84938 23.18583,8.99954 38.33797,31.53401 11.31501,16.82782 13.81487,18.98074 22.03955,18.98074 9.43642,0 28.04954,-22.03518 34.42955,-40.75946 3.97668,-11.67094 2.0121,-17.42776 -13.90097,-40.73427 -10.76568,-15.76756 -13.78947,-22.34222 -23.60218,-51.31853 -13.80518,-40.76586 -20.47621,-54.27293 -32.67167,-66.15169 -11.67936,-11.37606 -42.08608,-31.7895 -59.94692,-40.24513 -12.40089,-5.8708 -14.69889,-6.31565 -31.52866,-6.1034 -19.50682,0.24602 -27.20052,2.86057 -53.87727,18.3091 l -10.88364,6.30273 -21.60044,-11.04378 c -34.81926,-17.80224 -53.18701,-18.9128 -80.73388,-4.88138 -8.46387,4.3112 -20.39683,11.23811 -26.51768,15.39315 -15.78796,10.71734 -37.212424,31.45851 -41.816094,40.48246 -2.152303,4.21886 -10.628242,25.51399 -18.835421,47.3225 -12.585848,33.44371 -16.810758,42.37737 -26.984915,57.06009 -10.536934,15.20626 -12.039801,18.46976 -11.881167,25.8002 0.258074,11.92559 10.107004,30.85297 21.694393,41.69161 10.673884,9.98417 17.675225,11.41152 24.551506,5.0053 z M 247.23079,315.30815 c -55.53342,-20.15033 -62.53841,-23.54794 -72.95992,-35.38739 -22.84686,-25.95539 -15.58709,-62.1643 15.11154,-75.37049 13.27002,-5.7086 21.73816,-4.26785 45.13071,7.67843 10.15307,5.18505 19.79513,9.42736 21.42683,9.42736 1.63169,0 11.92087,-4.51433 22.86485,-10.03185 17.20796,-8.67558 21.37617,-10.0233 30.83052,-9.96869 30.63931,0.17694 49.84483,34.52881 36.36555,65.04487 -8.06081,18.24904 -19.96143,27.03849 -51.27092,37.86719 -10.7807,3.72862 -21.43399,7.76014 -23.674,8.95895 -8.95511,4.79265 -14.40401,5.20011 -23.82516,1.78162 z M 127.81558,159.6845 c 6.63514,-18.31793 11.46625,-34.27233 10.73581,-35.45422 -4.03907,-6.53535 -7.71587,0.35115 -19.37002,36.27928 -6.6476,20.49363 -12.07552,38.55096 -12.06205,40.12739 0.0706,8.26158 9.95307,-11.29323 20.69626,-40.95245 z m 267.82113,6.33907 c -5.32489,-19.26515 -10.74921,-36.06927 -12.05406,-37.34249 -1.30485,-1.27322 -4.76226,-2.901 -7.68315,-3.61729 l -5.31073,-1.30234 3.81377,10.25304 c 2.09757,5.63916 8.05681,21.69963 13.24276,35.68993 8.35303,22.53425 14.60916,34.41058 16.91299,32.10675 0.41801,-0.41803 -3.5967,-16.52245 -8.92158,-35.7876 z m -263.84407,16.93822 c 6.01122,-6.35776 38.27106,-67.98798 38.27106,-73.11423 0,-3.58534 -6.77864,-10.484499 -10.30135,-10.484499 -1.606,0 -6.63343,9.642769 -12.70211,24.363059 -16.53308,40.10287 -25.11023,65.44586 -22.14968,65.44586 0.55572,0 3.65265,-2.79458 6.88208,-6.21019 z m 254.88108,0.95541 c -5.88487,-23.83909 -30.96346,-84.540734 -34.93089,-84.548693 -3.96468,-0.008 -9.7046,5.773253 -9.7046,9.774393 0,5.03628 30.3565,65.51959 36.8194,73.36021 6.62144,8.03294 9.58225,8.56862 7.81609,1.41409 z m -22.57336,-18.61572 c -6.62046,-14.97006 -33.15034,-62.07351 -37.94539,-67.37154 -8.62214,-9.526565 -20.08183,-1.540871 -17.87672,12.45739 0.61764,3.92073 5.92262,16.81184 11.78884,28.64691 l 10.66588,21.51831 18.55072,9.33718 c 10.2029,5.13545 18.80188,8.67164 19.10887,7.8582 0.30698,-0.81345 -1.62451,-6.41435 -4.2922,-12.44645 z m -205.0956,6.71184 c 15.95623,-5.97417 23.02944,-13.12343 32.64803,-32.99911 11.89192,-24.57321 13.72605,-30.90555 10.91633,-37.68877 -2.80165,-6.763808 -12.82885,-11.627682 -15.50726,-7.52208 -12.61675,19.33962 -41.83892,75.98918 -41.83892,81.10815 0,1.65932 3.67136,0.88727 13.78182,-2.89819 z"
       id="path5507"
       inkscape:connector-curvature="0" />
    <path
       style="fill:#d71717"
       d="M 0,256.05097 0,0 l 256.05097,0 256.05096,0 0,256.05097 0,256.05096 -256.05096,0 -256.05097,0 0,-256.05096 z m 74.34324,156.86696 c 2.00343,-2.00344 7.963825,-10.04639 13.245323,-17.87323 12.081581,-17.90412 18.780657,-23.54068 32.442977,-27.29733 19.17634,-5.27282 26.68385,-8.58497 41.29491,-18.21839 18.07643,-11.91823 21.62345,-13.22323 35.94102,-13.22323 8.36503,0 15.22703,1.47686 24.23867,5.21673 11.22989,4.66045 14.91349,5.21333 34.54483,5.18495 19.79965,-0.0287 23.26683,-0.57135 35.0318,-5.48365 11.81662,-4.93386 14.4218,-5.33654 27.41767,-4.23799 13.34318,1.1279 15.81678,2.09138 34.92094,13.60187 13.10895,7.89829 24.6599,13.34428 31.87152,15.02665 20.36524,4.75089 26.13904,9.35975 41.72931,33.30996 9.67741,14.86668 13.02405,17.63626 21.31092,17.63626 10.25648,0 32.12073,-27.53771 35.95748,-45.28789 1.71325,-7.92616 -3.14356,-18.99403 -16.90255,-38.51811 -8.77936,-12.45795 -12.3322,-20.31877 -22.19687,-49.1117 -14.46814,-42.2295 -22.26883,-57.52783 -35.1348,-68.90468 -13.01538,-11.50897 -38.12368,-28.18684 -55.13538,-36.623 -12.52517,-6.21127 -15.3793,-6.87121 -30.08023,-6.9552 -8.93312,-0.051 -19.2516,0.21477 -22.92994,0.59068 -3.67834,0.37591 -10.55733,-0.90244 -15.28663,-2.84079 -12.31645,-5.04802 -48.94446,-5.02043 -61.14649,0.0461 -5.16218,2.14342 -11.65344,3.29415 -16.24204,2.87927 -4.20383,-0.38008 -14.56776,-0.71918 -23.03095,-0.75356 -13.99275,-0.0568 -16.70071,0.58655 -29.87291,7.09746 -25.38941,12.54978 -53.51295,33.64788 -65.092505,48.83199 -4.848457,6.35772 -11.867297,22.16763 -23.305526,52.49559 -13.892626,36.8357 -18.171492,46.01864 -28.297189,60.729 -14.504166,21.07131 -15.211728,26.74464 -5.736064,45.99244 11.734168,23.83548 30.74862,36.38391 40.442704,26.68984 z m 87.29504,-159.07926 c -1.64291,-9.68496 -0.31781,-18.62102 4.01938,-27.10541 3.50963,-6.86551 5.23184,-5.52567 2.34379,1.82339 -1.19305,3.03589 -2.77312,11.96884 -3.51128,19.851 l -1.3421,14.33121 -1.50979,-8.90019 z m 186.50061,-2.62606 c -0.20249,-4.23752 -1.58749,-12.40517 -3.07775,-18.1503 -3.22433,-12.43007 -2.33731,-14.80535 1.81641,-4.86407 1.95493,4.67879 2.74684,11.18281 2.3041,18.92396 -0.43706,7.64199 -0.80421,9.08222 -1.04276,4.09041 z M 127.29951,161.63875 c 6.861,-18.66684 11.9834,-35.21961 11.38311,-36.78395 -0.60029,-1.56434 -2.56446,-2.56057 -4.36481,-2.21385 -2.4269,0.46737 -6.37434,10.26301 -15.2649,37.88008 -13.30879,41.34154 -14.04697,44.87644 -8.13724,38.96671 2.15011,-2.1501 9.52284,-19.18216 16.38384,-37.84899 z m 268.26623,3.60135 c -9.77369,-35.11313 -12.84164,-41.03627 -21.25511,-41.03627 -1.98549,0 -3.60163,0.21496 -3.59143,0.4777 0.01,0.26274 5.91599,16.1924 13.12392,35.39924 11.67911,31.12107 19.14416,45.92561 20.74137,41.13398 0.29814,-0.89446 -3.76028,-17.08305 -9.01875,-35.97465 z m -261.29069,15.19283 c 8.26447,-11.70408 35.73497,-65.78487 35.7649,-70.40985 0.0306,-4.72366 -5.34063,-10.660019 -9.64514,-10.660019 -2.46317,0 -5.95679,6.166239 -13.2621,23.407649 -9.68549,22.85891 -22.92888,59.97153 -22.92888,64.25474 0,4.51777 4.13929,1.80823 10.07122,-6.59252 z m 253.62305,6.90102 c 0,-4.38997 -9.83686,-31.90285 -21.03414,-58.83076 -9.10581,-21.89818 -12.95011,-29.140129 -15.46873,-29.140129 -4.59915,0 -9.357,5.148739 -9.357,10.125729 0,5.89201 29.77066,65.26033 36.65989,73.10671 5.71093,6.5044 9.19998,8.30143 9.19998,4.73845 z m -22.89846,-20.52419 c -6.52871,-14.78151 -32.62135,-61.54673 -37.72239,-67.60898 -5.87971,-6.987619 -12.68589,-7.290923 -16.96765,-0.756126 -4.08782,6.238796 -2.854,13.661846 5.44947,32.785716 11.70487,26.95777 14.69066,30.38464 34.49687,39.59317 9.66816,4.49502 17.85158,7.49325 18.18541,6.66272 0.33382,-0.83053 -1.21495,-5.63495 -3.44171,-10.6765 z m -188.7101,-4.29956 c 5.62116,-4.8115 10.41101,-12.15783 17.21817,-26.40799 11.94724,-25.01046 13.21819,-32.73474 6.4928,-39.460134 -8.95982,-8.959813 -10.98137,-7.334392 -27.7434,22.306974 -16.17235,28.59861 -27.03417,51.00685 -27.03417,55.77225 0,4.4034 21.55398,-4.06865 31.0666,-12.2111 z"
       id="path5505"
       inkscape:connector-curvature="0" />
    <path
       style="fill:#ca1111"
       d="M 0,256.05097 0,0 l 256.05097,0 256.05096,0 0,256.05097 0,256.05096 -256.05096,0 -256.05097,0 0,-256.05096 z m 71.547324,159.33145 c 1.688541,-0.64794 8.387087,-8.94114 14.885658,-18.4293 13.732028,-20.04931 22.391938,-27.05332 37.434258,-30.27629 5.96538,-1.27813 14.00729,-3.79657 17.87092,-5.59649 l 7.02479,-3.2726 6.35101,6.69569 c 14.26961,15.04405 44.35024,30.87247 68.33222,35.95638 18.66818,3.95744 49.54229,3.44757 68.65269,-1.13373 20.41137,-4.89319 46.22912,-18.2139 60.72306,-31.33015 l 11.30486,-10.23032 6.63088,3.28633 c 3.64699,1.80747 11.52176,4.33766 17.49952,5.6226 15.31226,3.29144 21.75804,8.38352 35.38867,27.95663 13.60569,19.5373 16.2479,21.92936 24.22269,21.92936 10.47454,0 31.93192,-26.34755 36.33772,-44.61916 1.83787,-7.62197 -1.7487,-17.27048 -12.0137,-32.31894 -14.96062,-21.93226 -17.04211,-26.28442 -27.17487,-56.81987 -15.76995,-47.52337 -22.24884,-58.27464 -47.98804,-79.633 -3.70981,-3.0784 -6.8,-9.89706 -11.92375,-26.31034 -9.50882,-30.46016 -29.50478,-77.496159 -32.94522,-77.496159 -1.50172,0 -4.39361,0.890129 -6.42642,1.978059 -5.82021,3.11488 -4.51819,11.92728 4.24263,28.71539 12.48583,23.92618 7.32804,19.70171 -7.1365,-5.84515 -7.18436,-12.68878 -14.63674,-24.760328 -16.56088,-26.825651 -8.26715,-8.873723 -19.83541,-0.89177 -18.26039,12.599421 0.71726,6.14389 0.40326,6.71432 -3.13328,5.69224 -22.71641,-6.56516 -28.57577,-7.46027 -48.83488,-7.46027 -19.78015,0 -31.09682,1.70145 -49.98736,7.51555 -2.69362,0.82904 -3.01888,-0.16586 -2.15643,-6.59597 0.85221,-6.35375 0.22355,-8.36437 -3.90667,-12.494604 -8.97321,-8.973208 -11.16295,-7.289606 -27.19535,20.909434 -8.07757,14.20746 -15.42924,26.29079 -16.33703,26.85184 -0.9078,0.56105 1.77984,-6.07349 5.97252,-14.74342 4.19268,-8.66993 7.62305,-17.61043 7.62305,-19.86779 0,-5.042 -6.2155,-10.994048 -10.56676,-10.118862 -3.61354,0.726812 -20.19392,38.799192 -29.82261,68.479592 -9.88807,30.47997 -11.17194,32.95181 -21.24033,40.89428 -17.574019,13.86329 -22.246047,21.91623 -40.175082,69.24775 -14.091424,37.20046 -18.611794,46.90414 -29.289025,62.87341 -11.94777,17.86951 -12.564167,19.33383 -11.477086,27.26495 1.624877,11.85478 11.553146,29.39528 22.359848,39.5037 8.959752,8.38079 14.395653,10.24636 21.694669,7.44546 z M 113.19045,196.59608 c 1.95269,-2.61542 8.99936,-19.75866 15.65924,-38.09608 11.45976,-31.55342 11.91254,-33.43473 8.44624,-35.0937 -2.22184,-1.06337 -4.30806,-1.06337 -5.30333,0 -0.90238,0.96412 -6.50756,16.80071 -12.45595,35.19243 -5.9484,18.39172 -11.60874,35.86835 -12.57853,38.83695 -2.16675,6.6326 0.96891,6.21017 6.23233,-0.8396 z m 282.55449,-31.53214 c -9.75566,-35.00022 -12.82963,-40.86011 -21.43431,-40.86011 -1.98549,0 -3.60998,0.27306 -3.60998,0.6068 0,0.33374 5.65951,16.02642 12.57671,34.87261 11.12864,30.32052 19.59403,46.67077 21.38387,41.30129 0.32826,-0.98478 -3.68408,-17.14904 -8.91629,-35.92059 z"
       id="path5503"
       inkscape:connector-curvature="0" />
    <path
       style="fill:#c20d0d"
       d="M 0,256.05097 0,0 l 256.05097,0 256.05096,0 0,256.05097 0,256.05096 -256.05096,0 L 0,512.10193 0,256.05097 Z M 279.45098,442.3803 c 45.15771,-5.91967 81.57683,-23.84507 111.73671,-54.99655 16.47594,-17.01765 15.50629,-17.25577 32.85042,8.06734 12.38899,18.0884 15.82475,21.10944 24.00732,21.10944 7.84535,0 22.82977,-15.39549 30.92328,-31.77157 9.78657,-19.8018 8.75002,-24.06178 -13.53281,-55.61741 -5.6166,-7.95389 -10.68902,-18.74755 -15.26742,-32.48767 -6.01764,-18.05931 -6.86099,-22.91344 -6.89421,-39.68109 -0.0445,-22.4807 -2.49123,-41.21313 -7.50176,-57.43537 -19.52246,-63.20637 -67.97536,-109.087625 -133.4684,-126.384523 -15.8234,-4.179004 -22.61377,-4.898089 -46.25314,-4.898089 -23.6645,0 -30.42308,0.717214 -46.32266,4.91572 -53.48185,14.122629 -89.71714,42.160862 -120.242482,93.041512 -1.576276,2.62739 -3.807392,7.35669 -4.958035,10.50956 -1.150645,3.15287 -4.360697,11.75159 -7.133452,19.10828 -5.727961,15.19747 -10.991815,54.64785 -9.251874,69.33893 1.542176,13.02126 -11.763652,49.32195 -25.541267,69.68113 -14.748144,21.79334 -16.436957,25.64802 -15.046516,34.34335 2.71782,16.99632 21.619285,43.78745 32.887929,46.61569 9.018241,2.26343 13.715685,-0.82244 23.640188,-15.52993 5.302858,-7.85849 12.648375,-17.29498 16.323369,-20.96998 l 6.68181,-6.68181 9.03563,10.04689 c 32.31051,35.92668 74.71051,56.14934 128.46239,61.27005 3.67834,0.35043 8.14863,0.77475 9.93397,0.94294 1.78535,0.16815 13.00431,-0.97338 24.93101,-2.53684 z"
       id="path5501"
       inkscape:connector-curvature="0" />
    <path
       style="fill:#b70808"
       d="M 0,256.05097 0,0 l 256.05097,0 256.05096,0 0,256.05097 0,256.05096 -256.05096,0 L 0,512.10193 0,256.05097 Z M 300.84053,478.6255 c 45.2999,-9.35696 88.82083,-32.75593 117.71589,-63.28983 l 10.59463,-11.19553 5.3579,6.21019 c 9.2413,10.7113 20.45515,7.90743 34.16903,-8.54348 9.82271,-11.78316 15.68725,-24.88103 15.70322,-35.07165 0.0115,-6.82685 -1.60591,-11.36652 -7.37786,-20.71782 l -7.3916,-11.97532 3.96621,-13.67707 C 489.2262,266.40368 484.55419,207.57373 460.63563,157.3946 448.48225,131.89787 438.34928,117.29781 418.55579,96.764046 358.57606,34.54109 266.41021,12.892657 181.83211,41.161064 145.03475,53.459792 118.37914,70.649427 90.468651,100.07941 71.269862,120.32342 56.438475,142.93385 46.717018,166.77872 26.34263,216.7532 23.499538,268.38712 38.235024,320.82177 l 3.971979,14.13384 -6.924972,10.42978 c -3.808734,5.73636 -7.337617,13.13409 -7.841961,16.43939 -2.02511,13.27186 12.159941,40.79014 25.806443,50.06318 9.370544,6.36745 16.38772,6.03294 23.542948,-1.12229 l 5.794846,-5.79483 15.554983,14.90555 c 34.46694,33.02795 80.01831,54.86753 128.29384,61.51045 17.63259,2.42631 56.22635,0.99405 74.4074,-2.76134 z"
       id="path5499"
       inkscape:connector-curvature="0" />
    <path
       style="fill:#ac0303"
       d="M 0.03192747,442.83441 0.06385495,373.56689 8.4900961,389.26035 C 35.030176,438.68996 73.241995,476.98616 122.30182,503.32343 l 16.23322,8.71464 L 69.267519,512.07 0,512.10193 0.03192747,442.83441 Z M 389.69401,503.38013 c 49.04624,-26.33081 86.57932,-64.17692 114.56271,-115.51822 l 7.79146,-14.29502 0.0269,69.26752 0.0268,69.26752 -69.26752,-0.0319 -69.26752,-0.0319 16.12712,-8.65794 z M 0.03667284,69.267519 0,0 68.281518,0 136.56304,0 117.48534,11.035806 C 106.99261,17.105499 93.296623,25.854538 87.049817,30.478117 57.191096,52.578069 27.099097,87.552389 9.6961271,120.38217 L 0.07334568,138.53504 0.03667284,69.267519 Z M 505.64136,126.59236 C 489.64823,93.722002 457.82537,55.566808 427.38984,32.769788 412.10421,21.320462 384.99708,4.6253732 376.43314,1.3859141 374.8567,0.78960169 404.73728,0.23382502 442.83441,0.15085485 L 512.10193,0 l 0,68.789811 c 0,37.834399 -0.25082,68.789809 -0.55735,68.789809 -0.30655,0 -2.96301,-4.94426 -5.90322,-10.98726 z"
       id="path5497"
       inkscape:connector-curvature="0" />
  </g>
</svg>
